<svg viewBox="0 0 520 270" role="img" aria-label="Semantic Answer Cache 동작 구조" style="width:100%;height:auto;display:block">
          <defs><marker id="ansArrow" markerWidth="10" markerHeight="10" refX="8" refY="3" orient="auto"><path d="M0,0 L0,6 L9,3 z" fill="#475569"></path></marker></defs>
          <rect x="0" y="0" width="520" height="270" rx="10" fill="#f8fafc"></rect>
          <g font-size="13" font-weight="800" text-anchor="middle">
            <rect x="22" y="26" width="104" height="40" rx="7" fill="#f1f5f9" stroke="#cbd5e1"></rect><text x="74" y="51" fill="#334155">User Query</text>
            <rect x="154" y="26" width="122" height="40" rx="7" fill="#f1f5f9" stroke="#cbd5e1"></rect><text x="215" y="51" fill="#334155">Query Embedding</text>
            <rect x="306" y="26" width="154" height="40" rx="7" fill="#f1f5f9" stroke="#cbd5e1"></rect><text x="383" y="51" fill="#334155">Answer Cache Lookup</text>
            <rect x="304" y="94" width="158" height="40" rx="7" fill="#f8fafc" stroke="#94a3b8"></rect><text x="383" y="119" fill="#334155">Metadata Guard</text>
            <rect x="288" y="170" width="190" height="38" rx="8" fill="#dcfce7" stroke="#22c55e"></rect><text x="383" y="194" fill="#166534">Cached Final Answer</text>
            <rect x="44" y="148" width="140" height="36" rx="7" fill="#f8fafc" stroke="#94a3b8"></rect><text x="114" y="171" fill="#334155">EU RAG + LLM</text>
            <rect x="54" y="214" width="120" height="36" rx="8" fill="#e0f2fe" stroke="#38bdf8"></rect><text x="114" y="237" fill="#075985">New Answer</text>
          </g>
          <g stroke="#475569" stroke-width="2" marker-end="url(#ansArrow)">
            <line x1="126" y1="46" x2="154" y2="46"></line><line x1="276" y1="46" x2="306" y2="46"></line>
            <line x1="383" y1="66" x2="383" y2="94"></line><line x1="383" y1="134" x2="383" y2="170"></line>
            <path d="M306 50 C210 78, 114 96, 114 148" fill="none"></path>
            <path d="M304 114 C226 126, 114 130, 114 148" fill="none"></path>
            <line x1="114" y1="184" x2="114" y2="214"></line>
          </g>
          <text x="408" y="158" font-size="12" font-weight="800" fill="#166534" text-anchor="middle">Valid</text>
          <text x="214" y="114" font-size="12" font-weight="800" fill="#475569" text-anchor="middle">Miss / Invalid</text>
        </svg>
