<svg viewBox="0 0 1120 420" role="img" aria-label="유사 질문이 RAG 런타임 파이프라인을 반복 통과하며 비용과 변동성을 만드는 흐름" style="width:100%;height:auto;display:block">
        <defs>
          <marker id="dp4arrow" markerWidth="10" markerHeight="10" refX="8" refY="3" orient="auto" markerUnits="strokeWidth">
            <path d="M0,0 L0,6 L9,3 z" fill="#334155"></path>
          </marker>
          <filter id="dp4shadow" x="-5%" y="-10%" width="110%" height="125%">
            <feDropShadow dx="0" dy="2" stdDeviation="2" flood-color="#94a3b8" flood-opacity="0.28"></feDropShadow>
          </filter>
        </defs>
        <rect x="0" y="0" width="1120" height="420" rx="12" fill="#f8fafc"></rect>
        <text x="34" y="42" font-size="22" font-weight="800" fill="#0f172a">현재 상태: 비슷한 질문이 들어와도 RAG Runtime Work가 반복됨</text>
        <g filter="url(#dp4shadow)">
          <rect x="34" y="72" width="244" height="118" rx="10" fill="#eff6ff" stroke="#93c5fd"></rect>
          <text x="54" y="100" font-size="17" font-weight="800" fill="#1e3a8a">Similar Questions</text>
          <text x="54" y="130" font-size="14" fill="#1e293b">Q1. AuthClient 사용법</text>
          <text x="54" y="154" font-size="14" fill="#1e293b">Q2. 초기화 방법</text>
          <text x="54" y="178" font-size="14" fill="#1e293b">Q3. 토큰 검증 흐름</text>
        </g>
        <line x1="278" y1="132" x2="334" y2="132" stroke="#334155" stroke-width="2.4" marker-end="url(#dp4arrow)"></line>
        <g filter="url(#dp4shadow)">
          <rect x="334" y="72" width="752" height="118" rx="10" fill="#ffffff" stroke="#cbd5e1"></rect>
          <text x="356" y="100" font-size="17" font-weight="800" fill="#0f172a">RAG Runtime Pipeline</text>
          <g font-size="13" font-weight="700" text-anchor="middle">
            <rect x="356" y="122" width="100" height="42" rx="8" fill="#ecfeff" stroke="#67e8f9"></rect><text x="406" y="148" fill="#164e63">EU Search</text>
            <rect x="474" y="122" width="116" height="42" rx="8" fill="#f0fdf4" stroke="#86efac"></rect><text x="532" y="148" fill="#14532d">Scope Filter</text>
            <rect x="608" y="122" width="108" height="42" rx="8" fill="#fff7ed" stroke="#fdba74"></rect><text x="662" y="148" fill="#7c2d12">Rerank</text>
            <rect x="734" y="122" width="122" height="42" rx="8" fill="#f5f3ff" stroke="#c4b5fd"></rect><text x="795" y="148" fill="#4c1d95">Context Build</text>
            <rect x="874" y="122" width="82" height="42" rx="8" fill="#fef2f2" stroke="#fca5a5"></rect><text x="915" y="148" fill="#7f1d1d">LLM</text>
            <rect x="974" y="122" width="86" height="42" rx="8" fill="#f8fafc" stroke="#94a3b8"></rect><text x="1017" y="148" fill="#334155">Citation</text>
          </g>
          <g stroke="#64748b" stroke-width="1.8" marker-end="url(#dp4arrow)">
            <line x1="456" y1="143" x2="474" y2="143"></line>
            <line x1="590" y1="143" x2="608" y2="143"></line>
            <line x1="716" y1="143" x2="734" y2="143"></line>
            <line x1="856" y1="143" x2="874" y2="143"></line>
            <line x1="956" y1="143" x2="974" y2="143"></line>
          </g>
        </g>
        <g>
          <path d="M410 190 C410 236, 188 222, 188 266" fill="none" stroke="#0284c7" stroke-width="2" marker-end="url(#dp4arrow)"></path>
          <path d="M532 190 C532 248, 412 235, 412 266" fill="none" stroke="#16a34a" stroke-width="2" marker-end="url(#dp4arrow)"></path>
          <path d="M662 190 C662 248, 620 235, 620 266" fill="none" stroke="#f97316" stroke-width="2" marker-end="url(#dp4arrow)"></path>
          <path d="M915 190 C915 248, 868 235, 868 266" fill="none" stroke="#dc2626" stroke-width="2" marker-end="url(#dp4arrow)"></path>
        </g>
        <g filter="url(#dp4shadow)">
          <rect x="56" y="266" width="264" height="92" rx="10" fill="#ffffff" stroke="#bae6fd"></rect>
          <text x="78" y="294" font-size="16" font-weight="800" fill="#075985">Latency / Cost</text>
          <text x="78" y="322" font-size="13" fill="#334155">같은 Topic 근거 검색과 검증이 반복된다.</text>
          <text x="78" y="344" font-size="13" fill="#334155">캐싱 안 된 질의의 기본 속도도 중요하다.</text>
          <rect x="350" y="266" width="244" height="92" rx="10" fill="#ffffff" stroke="#bbf7d0"></rect>
          <text x="372" y="294" font-size="16" font-weight="800" fill="#166534">Permission / Version</text>
          <text x="372" y="322" font-size="13" fill="#334155">사용자 권한과 요청 source version을</text>
          <text x="372" y="344" font-size="13" fill="#334155">매 질의마다 일관되게 반영해야 한다.</text>
          <rect x="624" y="266" width="222" height="92" rx="10" fill="#ffffff" stroke="#fed7aa"></rect>
          <text x="646" y="294" font-size="16" font-weight="800" fill="#9a3412">Top-K Variance</text>
          <text x="646" y="322" font-size="13" fill="#334155">반복 검색에서 근거 조합이 달라지면</text>
          <text x="646" y="344" font-size="13" fill="#334155">답변 방향과 다양성이 흔들릴 수 있다.</text>
          <rect x="876" y="266" width="204" height="92" rx="10" fill="#ffffff" stroke="#fecaca"></rect>
          <text x="898" y="294" font-size="16" font-weight="800" fill="#991b1b">Citation Rebuild</text>
          <text x="898" y="322" font-size="13" fill="#334155">팀 맥락 근거와 Citation을</text>
          <text x="898" y="344" font-size="13" fill="#334155">매번 다시 연결해야 한다.</text>
        </g>
        <rect x="216" y="378" width="688" height="30" rx="15" fill="#e0f2fe" stroke="#7dd3fc"></rect>
        <text x="560" y="398" font-size="15" font-weight="800" fill="#075985" text-anchor="middle">Design Need: 반복 질의에서 재사용 가능한 RAG 산출물과 검증 조건을 정의해야 한다</text>
      </svg>
